Band: How To Destroy Angels
Tour: Coachella Festival
Venue: Empire Polo Grounds
Location: Indio, California

Date: 2013-04-12

Source: YouTube Live Streaming 1080p -&gt; HiDownload Platinum -&gt; Dime

Capture : Nnig0r & hunter212

Subs & CHapters : Ninjaw P.B.

Setlist:
The Wake Up
Keep It Together
Parasite
And The Sky Began To Scream
Ice Age
The Believers
How Long?
Welcome Oblivion
BBB (Big Black Boots)
The Space In Between (Remix)
Fur-Lined
The Loop Closes
A Drowning

--------------------------------------------------------

Format                         : MPEG-TS
File size                      : 1.67 GiB
Duration                       : 1h 1mn
Overall bit rate               : 3 929 Kbps

Video
ID                             : 256 (0x100)
Menu ID                        : 1 (0x1)
Format                         : AVC
Format/Info                    : Advanced Video Codec
Format profile                 : High@L4.0
Format settings, CABAC         : Yes
Format settings, ReFrames      : 2 frames
Format settings, GOP           : M=1, N=15
Codec ID                       : 27
Duration                       : 1h 1mn
Bit rate                       : 3 481 Kbps
Width                          : 1 920 pixels
Height                         : 1 080 pixels
Display aspect ratio           : 16:9
Frame rate mode                : Variable
Color space                    : YUV
Chroma subsampling             : 4:2:0
Bit depth                      : 8 bits
Scan type                      : Progressive
Stream size                    : 1.48 GiB (89%)

Audio
ID                             : 257 (0x101)
Menu ID                        : 1 (0x1)
Format                         : AAC
Format/Info                    : Advanced Audio Codec
Format version                 : Version 4
Format profile                 : LC
Muxing mode                    : ADTS
Codec ID                       : 15
Duration                       : 1h 0mn
Bit rate mode                  : Constant / Variable / Variable
Bit rate                       : 251 Kbps
Minimum bit rate               : 244 Kbps / 244 Kbps
Maximum bit rate               : 281 Kbps / 281 Kbps
Channel(s)                     : 2 channels
Channel positions              : Front: L R
Sampling rate                  : 48.0 KHz
Compression mode               : Lossy
Stream size                    : 110 MiB (6%)

--------------------------------------------------------

065D36EAFF8DB38763C18E298AE16A2A *2013-04-12_htda_coachella.jpg
775F068EC53462E7C2D4DD58EF95ECC8 *2013-04-12_htda_coachella.ts
